<svg width="500" height="500" viewBox="0 0 500 500" fill="none" xmlns="http://www.w3.org/2000/svg">
<path fill-rule="evenodd" clip-rule="evenodd" d="M0 250C0 111.929 111.929 0 250 0C352.902 0 441.283 62.1703 479.631 150.999C403.257 150.971 349.335 150.462 313.823 141.542C295.724 136.996 284.827 130.786 278.312 123.37C272.094 116.292 268 105.974 268 89V71H232V89C232 112.026 237.718 131.708 251.266 147.13C264.517 162.214 283.339 171.004 305.053 176.458C347.037 187.003 408.791 187.002 486.964 187L490 187H491.995C493.023 190.963 493.957 194.964 494.794 199H486C374.741 199 297.173 198.896 247.088 188.15C222.291 182.83 206.885 175.384 197.661 166.245C189.073 157.736 184 145.909 184 127V109H148V127C148 153.091 155.364 175.014 172.323 191.818C188.646 207.991 211.897 217.42 239.537 223.35C293.848 235.002 375.32 235.001 483.142 235L486 235H499.557C499.812 239.305 499.958 243.639 499.992 248H486L483.142 248C375.32 247.999 293.848 247.998 239.537 259.65C211.897 265.58 188.646 275.009 172.323 291.182C155.364 307.986 148 329.909 148 356V374H184V356C184 337.091 189.073 325.264 197.661 316.755C206.885 307.616 222.291 300.17 247.088 294.85C297.173 284.104 374.741 284 486 284H497.707C497.113 288.37 496.406 292.705 495.589 297H490H488.043C423.343 296.999 361.714 296.998 316.274 307.459C293.153 312.782 272.082 321.24 256.637 335.543C240.505 350.482 232 370.418 232 395V413H268V395C268 379.582 272.933 369.518 281.097 361.957C289.949 353.76 304.034 347.218 324.351 342.541C364.489 333.301 420.563 333.008 485.892 333C451.667 430.274 358.976 500 250 500C111.929 500 0 388.071 0 250Z" fill="white"/>
</svg>
