<svg width="500" height="500" viewBox="0 0 500 500" fill="none" xmlns="http://www.w3.org/2000/svg">
<path fill-rule="evenodd" clip-rule="evenodd" d="M0 250C0 111.929 111.929 0 250 0C353.288 0 441.946 62.6373 480.061 151.999C403.506 151.974 349.302 151.485 313.579 142.512C295.38 137.941 284.263 131.659 277.561 124.03C271.139 116.72 267 106.142 267 89V72H233V89C233 111.858 238.673 131.28 252.017 146.47C265.081 161.341 283.683 170.059 305.296 175.488C347.159 186.003 408.813 186.002 487.116 186L490 186H491.733C492.952 190.616 494.042 195.284 494.999 200H486C374.797 200 297.094 199.901 246.879 189.128C222.002 183.791 206.378 176.29 196.957 166.955C188.137 158.216 183 146.108 183 127V110H149V127C149 152.892 156.301 174.534 173.027 191.107C189.153 207.085 212.186 216.459 239.746 222.372C293.954 234.001 375.342 234.001 483.29 234L486 234H499.496C499.81 238.962 499.978 243.963 499.998 249H486L483.29 249C375.342 248.999 293.954 248.999 239.746 260.628C212.186 266.541 189.153 275.915 173.027 291.893C156.301 308.466 149 330.108 149 356V373H183V356C183 336.892 188.137 324.784 196.957 316.045C206.378 306.71 222.002 299.209 246.879 293.872C297.094 283.099 374.797 283 486 283H497.841C497.176 288.049 496.359 293.051 495.397 298H490H488.143C423.363 297.999 361.827 297.998 316.499 308.433C293.455 313.738 272.578 322.144 257.316 336.277C241.405 351.011 233 370.673 233 395V412H267V395C267 379.327 272.032 368.989 280.418 361.223C289.453 352.856 303.732 346.262 324.126 341.567C364.47 332.279 420.803 332.007 486.241 332C452.301 429.795 359.349 500 250 500C111.929 500 0 388.071 0 250Z" fill="black"/>
</svg>
